<?xml version="1.0" encoding="UTF-8" standalone="no"?>
<svg
   xmlns:dc="http://purl.org/dc/elements/1.1/"
   xmlns:cc="http://creativecommons.org/ns#"
   xmlns:rdf="http://www.w3.org/1999/02/22-rdf-syntax-ns#"
   xmlns:svg="http://www.w3.org/2000/svg"
   xmlns="http://www.w3.org/2000/svg"
   xmlns:sodipodi="http://sodipodi.sourceforge.net/DTD/sodipodi-0.dtd"
   xmlns:inkscape="http://www.inkscape.org/namespaces/inkscape"
   width="110.549701mm"
   height="111.109243mm"
   viewBox="710.105279687114 -236.793622776576 110.549701 111.109243"
   version="1.1"
   preserveAspectratio="xMidYMid"
   id="svg12"
   sodipodi:docname="testi.svg"
   inkscape:version="0.92.1 r15371">
  <sodipodi:namedview
     pagecolor="#ffffff"
     bordercolor="#666666"
     borderopacity="1"
     objecttolerance="10"
     gridtolerance="10"
     guidetolerance="10"
     inkscape:pageopacity="0"
     inkscape:pageshadow="2"
     inkscape:window-width="1920"
     inkscape:window-height="1017"
     id="namedview14"
     showgrid="false"
     inkscape:zoom="0.56198444"
     inkscape:cx="-8.1750473"
     inkscape:cy="209.97023"
     inkscape:window-x="1912"
     inkscape:window-y="-8"
     inkscape:window-maximized="1"
     inkscape:current-layer="layer2" />
  <metadata
     id="metadata18">
    <rdf:RDF>
      <cc:Work
         rdf:about="">
        <dc:format>image/svg+xml</dc:format>
        <dc:type
           rdf:resource="http://purl.org/dc/dcmitype/StillImage" />
      </cc:Work>
    </rdf:RDF>
  </metadata>
  <defs
     id="defs16" />
  <!--SVG version of Rhinoceros 5.0 file _Protovaihteisto.3dm_-->
  <!-- Millimeters in Rhinoceros file-->
  <!-- Millimeters in SVG file-->
  <!--Export Rhino to SVG, version 0.3, 21 of November 2016, Laurent Delrieu email:l[dot]delrieu[at]neuf.fr-->
  <g
     inkscape:label="60[feed=300]"
     id="layer1"
     inkscape:groupmode="layer">
    <path
       d="m 802.34097,-152.21747 c 0.007,0.005 0.0119,0.009 0.0205,0.0151 0.009,0.006 0.0205,0.0147 0.0346,0.0246 0.0141,0.01 0.0303,0.0209 0.049,0.0335 0.0188,0.0125 0.0401,0.0265 0.0639,0.0418 0.0238,0.0153 0.0501,0.0318 0.079,0.0496 0.0289,0.0178 0.0604,0.0368 0.0944,0.0569 0.0341,0.0201 0.0708,0.0413 0.11021,0.0635 0.0394,0.0222 0.0815,0.0455 0.12625,0.0696 0.0448,0.0242 0.0923,0.0492 0.14255,0.0751 0.0503,0.0259 0.10328,0.0526 0.1591,0.08 0.0558,0.0274 0.11444,0.0556 0.17589,0.0843 0.0615,0.0288 0.12573,0.0581 0.19289,0.088 0.0671,0.0299 0.13717,0.0603 0.21008,0.0911 0.0729,0.0308 0.14873,0.062 0.22747,0.0935 0.0787,0.0315 0.1604,0.0633 0.24501,0.0953 0.0846,0.032 0.17216,0.0642 0.26269,0.0965 0.0905,0.0323 0.18403,0.0647 0.28051,0.097 0.0965,0.0324 0.19596,0.0647 0.29843,0.0969 0.10248,0.0322 0.20796,0.0643 0.31645,0.0962 0.1085,0.0319 0.22001,0.0635 0.33454,0.0948 0.11454,0.0313 0.23209,0.0622 0.35268,0.0927 0.12059,0.0305 0.24421,0.0605 0.37087,0.09 0.12665,0.0295 0.25633,0.0584 0.38906,0.0866 0.13272,0.0282 0.26847,0.0558 0.40725,0.0826 0.13879,0.0268 0.2806,0.0528 0.42544,0.0779 0.14484,0.0251 0.29271,0.0493 0.44358,0.0725 0.15088,0.0232 0.30477,0.0454 0.46167,0.0665 0.15689,0.0211 0.31679,0.0411 0.47968,0.0598 0.16288,0.0188 0.32875,0.0363 0.49759,0.0525 0.16884,0.0162 0.34065,0.0311 0.5154,0.0445 0.17475,0.0134 0.35245,0.0254 0.53308,0.0358 0.18062,0.0104 0.36416,0.0193 0.5506,0.0265 0.0389,0.002 0.0779,0.003 0.11708,0.004 0.71011,-1.04338 1.38502,-2.1116 2.02238,-3.20093 -0.018,-0.0348 -0.0361,-0.0694 -0.0542,-0.1039 -0.0866,-0.16528 -0.17339,-0.32723 -0.26036,-0.48588 -0.087,-0.15864 -0.1741,-0.31398 -0.26126,-0.46604 -0.0872,-0.15206 -0.17436,-0.30084 -0.2615,-0.44636 -0.0871,-0.14553 -0.17419,-0.2878 -0.26107,-0.42685 -0.0869,-0.13904 -0.17359,-0.27487 -0.26001,-0.4075 -0.0864,-0.13264 -0.17256,-0.26209 -0.25832,-0.38838 -0.0858,-0.12629 -0.17111,-0.24943 -0.25598,-0.36945 -0.0849,-0.12003 -0.16925,-0.23693 -0.25304,-0.35077 -0.0838,-0.11384 -0.16697,-0.2246 -0.24946,-0.33234 -0.0825,-0.10773 -0.1643,-0.21244 -0.2453,-0.31416 -0.081,-0.10173 -0.16122,-0.20047 -0.24054,-0.29628 -0.0793,-0.0958 -0.15774,-0.1887 -0.23517,-0.2787 -0.0774,-0.09 -0.15389,-0.17713 -0.22925,-0.26143 -0.0754,-0.0843 -0.14965,-0.16578 -0.22275,-0.24449 -0.0731,-0.0787 -0.14503,-0.15465 -0.21569,-0.22789 -0.0707,-0.0732 -0.14006,-0.14377 -0.2081,-0.21166 -0.068,-0.0679 -0.13471,-0.13314 -0.19995,-0.1958 -0.0652,-0.0627 -0.12903,-0.12276 -0.1913,-0.18034 -0.0623,-0.0576 -0.123,-0.11265 -0.18213,-0.16527 -0.0591,-0.0526 -0.11663,-0.10281 -0.17246,-0.15063 -0.0558,-0.0478 -0.10994,-0.0933 -0.1623,-0.13641 -0.0523,-0.0431 -0.10294,-0.084 -0.15167,-0.12264 -0.0487,-0.0386 -0.0956,-0.0751 -0.14059,-0.10933 -0.045,-0.0343 -0.088,-0.0664 -0.12905,-0.0965 -0.0411,-0.0301 -0.0801,-0.0581 -0.11709,-0.0841 -0.037,-0.026 -0.0719,-0.0501 -0.1047,-0.0722 -0.0328,-0.0222 -0.0635,-0.0424 -0.0919,-0.0609 -0.0285,-0.0185 -0.0547,-0.0351 -0.0787,-0.05 -0.024,-0.0149 -0.0458,-0.0281 -0.0652,-0.0397 -0.0194,-0.0116 -0.0365,-0.0215 -0.0513,-0.0299 -0.0147,-0.008 -0.0271,-0.0153 -0.037,-0.0207 -0.01,-0.005 -0.0174,-0.009 -0.0248,-0.0132 -0.74779,-0.39304 -1.50284,-0.78987 -2.25425,-1.1848 0.93424,-1.88518 1.73613,-3.84184 2.39357,-5.84046 0.81245,0.24597 1.62883,0.49316 2.43738,0.73795 0.008,0.002 0.0161,0.005 0.027,0.008 0.0109,0.003 0.0245,0.007 0.0409,0.0112 0.0164,0.004 0.0356,0.009 0.0575,0.0147 0.022,0.005 0.0467,0.0112 0.0743,0.0174 0.0276,0.006 0.058,0.0128 0.0912,0.0196 0.0332,0.007 0.0693,0.0139 0.1082,0.0211 0.0389,0.007 0.0807,0.0146 0.12529,0.022 0.0446,0.007 0.0921,0.0149 0.14244,0.0222 0.0504,0.007 0.10356,0.0147 0.15965,0.0218 0.0561,0.007 0.11505,0.0141 0.17688,0.0208 0.0618,0.007 0.12654,0.0131 0.19412,0.0191 0.0676,0.006 0.13803,0.0116 0.21135,0.0167 0.0733,0.005 0.14951,0.01 0.22857,0.0137 0.079,0.004 0.16096,0.007 0.24573,0.0101 0.0848,0.003 0.17238,0.005 0.26283,0.006 0.0905,0.001 0.18375,0.001 0.27986,8.4e-4 0.0961,-6.2e-4 0.19505,-0.002 0.29678,-0.005 0.10174,-0.003 0.20628,-0.006 0.31359,-0.011 0.10732,-0.005 0.21741,-0.0107 0.33026,-0.0179 0.11285,-0.007 0.22845,-0.0156 0.34678,-0.0254 0.11833,-0.01 0.23938,-0.0209 0.36313,-0.0335 0.12374,-0.0126 0.25018,-0.0267 0.37927,-0.0423 0.1291,-0.0156 0.26086,-0.0328 0.39523,-0.0517 0.13438,-0.0189 0.27137,-0.0394 0.41095,-0.0617 0.13957,-0.0223 0.28173,-0.0464 0.42642,-0.0723 0.14469,-0.0259 0.29192,-0.0538 0.44164,-0.0836 0.14972,-0.0298 0.30192,-0.0616 0.45657,-0.0954 0.15465,-0.0338 0.31174,-0.0697 0.47122,-0.10783 0.15947,-0.0381 0.32134,-0.0783 0.48553,-0.12086 0.1642,-0.0425 0.33073,-0.0873 0.49954,-0.13448 0.1688,-0.0472 0.33988,-0.0967 0.51317,-0.14866 0.1733,-0.052 0.34881,-0.10642 0.52647,-0.16341 0.0371,-0.0119 0.0742,-0.0239 0.11149,-0.036 0.31042,-1.22332 0.57928,-2.45795 0.80563,-3.69958 -0.0289,-0.0265 -0.0576,-0.0529 -0.0864,-0.0791 -0.13788,-0.1257 -0.27486,-0.24819 -0.41085,-0.36752 -0.13599,-0.11933 -0.27099,-0.23551 -0.4049,-0.34858 -0.13391,-0.11308 -0.26674,-0.22306 -0.39839,-0.33001 -0.13164,-0.10695 -0.26211,-0.21086 -0.39131,-0.31181 -0.1292,-0.10095 -0.25714,-0.19893 -0.38371,-0.294 -0.12658,-0.0951 -0.25179,-0.18726 -0.37557,-0.27661 -0.12377,-0.0893 -0.2461,-0.17586 -0.36691,-0.25962 -0.1208,-0.0838 -0.24008,-0.16476 -0.35774,-0.24307 -0.11767,-0.0783 -0.23372,-0.15395 -0.34809,-0.22697 -0.11437,-0.073 -0.22705,-0.14344 -0.33796,-0.21132 -0.11091,-0.0679 -0.22006,-0.13324 -0.32736,-0.19615 -0.1073,-0.0629 -0.21277,-0.12336 -0.31632,-0.18145 -0.10354,-0.0581 -0.20518,-0.11382 -0.30483,-0.16726 -0.0996,-0.0534 -0.19732,-0.10459 -0.29294,-0.15356 -0.0956,-0.049 -0.18918,-0.0957 -0.28062,-0.14037 -0.0915,-0.0447 -0.18079,-0.0872 -0.26794,-0.12773 -0.0872,-0.0405 -0.17213,-0.079 -0.25487,-0.1156 -0.0827,-0.0366 -0.16323,-0.0712 -0.24143,-0.10404 -0.0782,-0.0328 -0.15412,-0.0638 -0.22767,-0.093 -0.0736,-0.0292 -0.14477,-0.0567 -0.21358,-0.0826 -0.0688,-0.0258 -0.13521,-0.05 -0.19917,-0.0727 -0.064,-0.0226 -0.12546,-0.0437 -0.18447,-0.0634 -0.059,-0.0196 -0.11553,-0.0378 -0.1695,-0.0547 -0.054,-0.0168 -0.10542,-0.0323 -0.15427,-0.0465 -0.0489,-0.0142 -0.0951,-0.0272 -0.1388,-0.039 -0.0437,-0.0118 -0.0847,-0.0225 -0.12309,-0.0321 -0.0384,-0.01 -0.0741,-0.0182 -0.1072,-0.0258 -0.0331,-0.008 -0.0634,-0.0143 -0.0911,-0.0201 -0.0277,-0.006 -0.0526,-0.0108 -0.0748,-0.015 -0.0222,-0.004 -0.0417,-0.008 -0.0584,-0.0106 -0.0167,-0.003 -0.0307,-0.005 -0.0419,-0.007 -0.0112,-0.002 -0.0195,-0.003 -0.0279,-0.004 -0.83712,-0.11358 -1.68237,-0.22823 -2.52353,-0.34234 0.23312,-2.09102 0.31744,-4.20395 0.25166,-6.3069 0.84758,-0.0467 1.69928,-0.0937 2.54279,-0.14018 0.008,-4.6e-4 0.0168,-9.3e-4 0.0281,-0.002 0.0113,-7.8e-4 0.0254,-0.002 0.0423,-0.003 0.0169,-0.002 0.0366,-0.003 0.0591,-0.006 0.0225,-0.002 0.0477,-0.005 0.0758,-0.009 0.028,-0.004 0.0589,-0.008 0.0924,-0.0128 0.0336,-0.005 0.0699,-0.0106 0.10891,-0.0171 0.039,-0.007 0.0808,-0.0139 0.12526,-0.0222 0.0445,-0.008 0.0916,-0.0175 0.14146,-0.0278 0.0498,-0.0103 0.10234,-0.0216 0.15749,-0.0341 0.0551,-0.0125 0.11292,-0.0261 0.17331,-0.041 0.0604,-0.0149 0.12338,-0.031 0.18894,-0.0485 0.0655,-0.0175 0.13368,-0.0363 0.20432,-0.0566 0.0707,-0.0203 0.14382,-0.042 0.21948,-0.0653 0.0756,-0.0233 0.15379,-0.0481 0.23436,-0.0746 0.0806,-0.0265 0.16357,-0.0546 0.24896,-0.0845 0.0854,-0.0299 0.17316,-0.0615 0.26326,-0.0949 0.0901,-0.0334 0.18255,-0.0687 0.27726,-0.10597 0.0947,-0.0372 0.19171,-0.0764 0.29093,-0.11757 0.0992,-0.0412 0.20064,-0.0844 0.30423,-0.12973 0.1036,-0.0453 0.20935,-0.0928 0.3172,-0.14244 0.10785,-0.0496 0.21779,-0.10151 0.32977,-0.15567 0.11197,-0.0542 0.22598,-0.11061 0.34195,-0.16944 0.11596,-0.0588 0.23389,-0.12004 0.35372,-0.18372 0.11982,-0.0637 0.24153,-0.12982 0.36506,-0.19851 0.12353,-0.0687 0.24889,-0.13993 0.37598,-0.2138 0.12709,-0.0739 0.25593,-0.15036 0.38643,-0.22956 0.1305,-0.0792 0.26266,-0.16111 0.39641,-0.2458 0.13375,-0.0847 0.26908,-0.17216 0.40591,-0.26249 0.13684,-0.0903 0.27517,-0.18352 0.41492,-0.27964 0.13975,-0.0961 0.28092,-0.19517 0.42342,-0.29722 0.14249,-0.10204 0.28632,-0.20709 0.43138,-0.31521 0.14507,-0.10811 0.29137,-0.2193 0.43883,-0.33361 0.0308,-0.0239 0.0616,-0.0479 0.0924,-0.072 -0.1267,-1.25572 -0.29633,-2.50785 -0.50829,-3.75202 -0.0362,-0.015 -0.0723,-0.03 -0.10827,-0.0448 -0.17255,-0.071 -0.34317,-0.13921 -0.51177,-0.20484 -0.1686,-0.0656 -0.33519,-0.12862 -0.4997,-0.18907 -0.16451,-0.0605 -0.32694,-0.11838 -0.48723,-0.17385 -0.16029,-0.0555 -0.31843,-0.1085 -0.47436,-0.15917 -0.15594,-0.0507 -0.30967,-0.099 -0.46113,-0.14504 -0.15146,-0.0461 -0.30065,-0.0898 -0.44752,-0.13147 -0.14687,-0.0416 -0.29141,-0.0811 -0.43358,-0.11847 -0.14216,-0.0374 -0.28194,-0.0727 -0.4193,-0.10606 -0.13736,-0.0333 -0.27228,-0.0647 -0.40473,-0.0942 -0.13244,-0.0295 -0.26241,-0.0571 -0.38985,-0.083 -0.12744,-0.0259 -0.25236,-0.0499 -0.3747,-0.0724 -0.12235,-0.0224 -0.24213,-0.0431 -0.3593,-0.0623 -0.11718,-0.0192 -0.23174,-0.0368 -0.34366,-0.0529 -0.11192,-0.0161 -0.22119,-0.0308 -0.32779,-0.0441 -0.10659,-0.0133 -0.21051,-0.0252 -0.31172,-0.0359 -0.1012,-0.0107 -0.1997,-0.0201 -0.29546,-0.0284 -0.0958,-0.008 -0.18878,-0.0154 -0.27903,-0.0215 -0.0903,-0.006 -0.17775,-0.0111 -0.26246,-0.0152 -0.0847,-0.004 -0.16664,-0.007 -0.24575,-0.01 -0.0791,-0.002 -0.15544,-0.004 -0.22894,-0.005 -0.0735,-7.5e-4 -0.14417,-7.7e-4 -0.21201,-1.7e-4 -0.0678,6e-4 -0.13285,0.002 -0.19502,0.004 -0.0622,0.002 -0.1215,0.004 -0.17797,0.007 -0.0565,0.003 -0.1101,0.006 -0.16088,0.009 -0.0508,0.003 -0.0987,0.007 -0.14376,0.0108 -0.0451,0.004 -0.0873,0.008 -0.12665,0.012 -0.0394,0.004 -0.0759,0.008 -0.10954,0.0124 -0.0337,0.004 -0.0645,0.008 -0.0925,0.0123 -0.028,0.004 -0.0531,0.008 -0.0754,0.0115 -0.0223,0.004 -0.0418,0.007 -0.0585,0.01 -0.0167,0.003 -0.0306,0.006 -0.0417,0.008 -0.0111,0.002 -0.0193,0.004 -0.0275,0.006 -0.82549,0.17958 -1.65897,0.36093 -2.48844,0.5414 -0.4961,-2.04466 -1.13954,-4.05899 -1.9206,-6.01262 0.78049,-0.3338 1.56476,-0.6692 2.3415,-1.00142 0.008,-0.003 0.0155,-0.007 0.0258,-0.0112 0.0103,-0.005 0.0232,-0.0105 0.0385,-0.0177 0.0154,-0.007 0.0332,-0.0158 0.0535,-0.0257 0.0203,-0.01 0.043,-0.0214 0.0681,-0.0344 0.0251,-0.013 0.0526,-0.0275 0.0825,-0.0436 0.0298,-0.0161 0.062,-0.0339 0.0965,-0.0534 0.0344,-0.0195 0.0712,-0.0407 0.11013,-0.0637 0.0389,-0.023 0.0801,-0.0478 0.12341,-0.0745 0.0433,-0.0267 0.0888,-0.0553 0.13633,-0.0859 0.0476,-0.0306 0.0972,-0.0632 0.14885,-0.0978 0.0517,-0.0346 0.10534,-0.0713 0.16097,-0.11017 0.0556,-0.0388 0.1132,-0.0798 0.17265,-0.12304 0.0595,-0.0432 0.12078,-0.0887 0.18391,-0.13641 0.0631,-0.0477 0.12807,-0.0978 0.19472,-0.15023 0.0667,-0.0524 0.13504,-0.10725 0.20506,-0.16452 0.07,-0.0573 0.14169,-0.117 0.21492,-0.17925 0.0732,-0.0623 0.14802,-0.12703 0.2243,-0.19441 0.0763,-0.0674 0.15402,-0.13734 0.23316,-0.20998 0.0792,-0.0726 0.15968,-0.14793 0.24152,-0.22596 0.0818,-0.078 0.16499,-0.15878 0.24935,-0.24233 0.0844,-0.0836 0.16994,-0.16989 0.25664,-0.25907 0.0867,-0.0892 0.17452,-0.18123 0.26338,-0.27618 0.0888,-0.0949 0.17873,-0.1928 0.26955,-0.29362 0.0908,-0.10082 0.18256,-0.2046 0.27515,-0.3114 0.0926,-0.1068 0.18602,-0.21661 0.28018,-0.32949 0.0942,-0.11288 0.18907,-0.22883 0.28461,-0.34789 0.0955,-0.11905 0.19172,-0.24123 0.28844,-0.36655 0.0967,-0.12533 0.19397,-0.25382 0.29165,-0.3855 0.0977,-0.13168 0.19581,-0.26656 0.29426,-0.40468 0.0984,-0.13812 0.19722,-0.27948 0.29622,-0.42411 0.099,-0.14463 0.19823,-0.29253 0.29757,-0.44375 0.0993,-0.15121 0.19879,-0.30572 0.29825,-0.46358 0.0208,-0.0329 0.0415,-0.066 0.0623,-0.0993 -0.54855,-1.13666 -1.1362,-2.25525 -1.7609,-3.3519 -0.0391,-0.002 -0.0782,-0.003 -0.11706,-0.005 -0.18642,-0.008 -0.37009,-0.0135 -0.55096,-0.0174 -0.18088,-0.004 -0.35897,-0.006 -0.53424,-0.007 -0.17527,-5.4e-4 -0.34771,5.8e-4 -0.51731,0.003 -0.16959,0.003 -0.33633,0.007 -0.50019,0.0127 -0.16386,0.006 -0.32484,0.0129 -0.48292,0.0214 -0.15808,0.009 -0.31325,0.0184 -0.4655,0.0295 -0.15225,0.0111 -0.30157,0.0235 -0.44795,0.037 -0.14638,0.0135 -0.28981,0.0281 -0.43029,0.0438 -0.14048,0.0156 -0.278,0.0323 -0.41254,0.0499 -0.13455,0.0176 -0.26613,0.0361 -0.39473,0.0554 -0.1286,0.0193 -0.25422,0.0394 -0.37685,0.0602 -0.12264,0.0208 -0.24229,0.0423 -0.35895,0.0643 -0.11666,0.0221 -0.23034,0.0447 -0.34103,0.0678 -0.11069,0.0231 -0.21839,0.0467 -0.3231,0.0707 -0.10472,0.024 -0.20646,0.0483 -0.30521,0.0728 -0.0988,0.0246 -0.19454,0.0494 -0.28735,0.0744 -0.0928,0.025 -0.18266,0.0501 -0.26955,0.0753 -0.0869,0.0252 -0.17083,0.0504 -0.25183,0.0755 -0.081,0.0251 -0.15905,0.0502 -0.23419,0.0751 -0.0751,0.0249 -0.14736,0.0496 -0.21668,0.074 -0.0693,0.0244 -0.13574,0.0486 -0.19928,0.0724 -0.0636,0.0238 -0.12422,0.0472 -0.18205,0.07 -0.0578,0.0229 -0.11281,0.0453 -0.16497,0.0671 -0.0522,0.0218 -0.10152,0.043 -0.14809,0.0635 -0.0466,0.0205 -0.0903,0.0403 -0.13139,0.0593 -0.041,0.019 -0.0793,0.0372 -0.11492,0.0545 -0.0356,0.0173 -0.0685,0.0337 -0.0987,0.0492 -0.0302,0.0154 -0.0578,0.0298 -0.0827,0.0432 -0.0249,0.0133 -0.0472,0.0256 -0.067,0.0366 -0.0197,0.011 -0.0369,0.0209 -0.0516,0.0294 -0.0146,0.009 -0.0268,0.0158 -0.0364,0.0217 -0.01,0.006 -0.0168,0.0104 -0.0239,0.0149 -0.71429,0.45109 -1.43548,0.90657 -2.15319,1.35985 -1.1655,-1.75167 -2.45908,-3.42446 -3.86121,-4.99313 0.61925,-0.58061 1.24151,-1.16402 1.85777,-1.74186 0.006,-0.006 0.0123,-0.0115 0.0204,-0.0194 0.008,-0.008 0.0182,-0.0178 0.0302,-0.0298 0.012,-0.012 0.0258,-0.0262 0.0415,-0.0425 0.0157,-0.0163 0.0331,-0.0349 0.0523,-0.0556 0.0192,-0.0208 0.0401,-0.0438 0.0626,-0.0692 0.0225,-0.0254 0.0467,-0.0531 0.0724,-0.0831 0.0257,-0.0301 0.053,-0.0626 0.0817,-0.0975 0.0287,-0.0349 0.0589,-0.0723 0.0905,-0.11224 0.0316,-0.0399 0.0645,-0.0823 0.0987,-0.12734 0.0342,-0.045 0.0697,-0.0926 0.10644,-0.14279 0.0367,-0.0502 0.0746,-0.10305 0.11357,-0.15858 0.039,-0.0555 0.0791,-0.11373 0.12016,-0.17468 0.0411,-0.0609 0.0832,-0.12462 0.12617,-0.19108 0.043,-0.0665 0.0869,-0.1357 0.13159,-0.20777 0.0447,-0.0721 0.0902,-0.14696 0.13642,-0.22473 0.0462,-0.0778 0.0931,-0.1584 0.14066,-0.24195 0.0475,-0.0835 0.0956,-0.17 0.14427,-0.25939 0.0486,-0.0894 0.0978,-0.18175 0.14729,-0.27707 0.0495,-0.0953 0.0995,-0.19363 0.14967,-0.29494 0.0502,-0.10131 0.10073,-0.20564 0.15143,-0.313 0.0507,-0.10736 0.10159,-0.21776 0.15255,-0.33122 0.051,-0.11346 0.10202,-0.22999 0.15304,-0.3496 0.051,-0.11961 0.10201,-0.24231 0.15287,-0.36811 0.0509,-0.1258 0.10158,-0.2547 0.15206,-0.38673 0.0505,-0.13202 0.10071,-0.26717 0.15059,-0.40545 0.0499,-0.13827 0.0994,-0.27969 0.14846,-0.42424 0.0491,-0.14456 0.0976,-0.29225 0.14567,-0.4431 0.048,-0.15085 0.0955,-0.30485 0.14222,-0.462 0.0468,-0.15716 0.0928,-0.31746 0.1381,-0.48092 0.0453,-0.16346 0.0897,-0.33008 0.13331,-0.49985 0.0436,-0.16977 0.0862,-0.34269 0.12784,-0.51875 0.0416,-0.17607 0.0822,-0.35529 0.12172,-0.53764 0.008,-0.038 0.0164,-0.0762 0.0246,-0.11456 -0.90422,-0.8805 -1.83901,-1.73065 -2.80112,-2.54749 -0.0374,0.0117 -0.0746,0.0235 -0.11173,0.0353 -0.17779,0.0566 -0.35236,0.11394 -0.5237,0.17205 -0.17134,0.0581 -0.33945,0.11693 -0.50433,0.17636 -0.16488,0.0594 -0.32654,0.11947 -0.48499,0.18001 -0.15844,0.0605 -0.31367,0.12157 -0.46569,0.18298 -0.15203,0.0614 -0.30084,0.12323 -0.44647,0.1853 -0.14563,0.0621 -0.28807,0.12443 -0.42733,0.18695 -0.13926,0.0625 -0.27535,0.1252 -0.40829,0.18794 -0.13294,0.0627 -0.26273,0.12554 -0.38938,0.18828 -0.12666,0.0627 -0.25018,0.12544 -0.37061,0.18797 -0.12042,0.0625 -0.23774,0.12491 -0.35199,0.18702 -0.11424,0.0621 -0.22542,0.12396 -0.33354,0.18543 -0.10814,0.0615 -0.21322,0.12258 -0.31531,0.18321 -0.10208,0.0606 -0.20115,0.12079 -0.29726,0.18037 -0.0961,0.0596 -0.18924,0.11858 -0.27945,0.17691 -0.0902,0.0583 -0.17749,0.11597 -0.26189,0.17284 -0.0844,0.0569 -0.16591,0.11296 -0.24458,0.16818 -0.0787,0.0552 -0.15451,0.10955 -0.22755,0.16292 -0.073,0.0534 -0.1433,0.10575 -0.21082,0.15707 -0.0675,0.0513 -0.13229,0.10157 -0.19438,0.15066 -0.0621,0.0491 -0.12151,0.097 -0.17829,0.14369 -0.0568,0.0467 -0.11093,0.0921 -0.16252,0.13614 -0.0516,0.0441 -0.1006,0.0868 -0.14712,0.12808 -0.0465,0.0413 -0.0905,0.0811 -0.13207,0.11947 -0.0416,0.0383 -0.0807,0.0751 -0.11743,0.11033 -0.0367,0.0352 -0.0711,0.0688 -0.10317,0.1007 -0.0321,0.0319 -0.0618,0.0621 -0.0893,0.0906 -0.0275,0.0284 -0.0528,0.0551 -0.0759,0.0799 -0.0231,0.0248 -0.0441,0.0478 -0.063,0.0688 -0.0189,0.0211 -0.0357,0.0402 -0.0504,0.0573 -0.0148,0.0171 -0.0275,0.0322 -0.0384,0.0453 -0.0108,0.0131 -0.0198,0.024 -0.0268,0.0329 -0.007,0.009 -0.0122,0.0155 -0.0173,0.0222 -0.51693,0.66818 -1.03884,1.34286 -1.55825,2.01427 -1.69431,-1.2474 -3.482,-2.37688 -5.3361,-3.37139 0.38332,-0.7574 0.76852,-1.51845 1.14999,-2.27221 0.004,-0.008 0.008,-0.0151 0.0126,-0.0252 0.005,-0.0102 0.011,-0.0229 0.0182,-0.0383 0.007,-0.0154 0.0153,-0.0334 0.0244,-0.0541 0.009,-0.0207 0.0192,-0.0441 0.0301,-0.0701 0.0109,-0.0261 0.0227,-0.0549 0.0351,-0.0864 0.0125,-0.0315 0.0257,-0.0658 0.0396,-0.10289 0.0139,-0.0371 0.0284,-0.0769 0.0434,-0.11957 0.015,-0.0427 0.0306,-0.0881 0.0466,-0.13642 0.016,-0.0483 0.0325,-0.0994 0.0492,-0.15342 0.0168,-0.054 0.0339,-0.11085 0.0512,-0.17059 0.0173,-0.0597 0.0348,-0.12234 0.0525,-0.18785 0.0177,-0.0655 0.0354,-0.13392 0.0532,-0.20524 0.0178,-0.0713 0.0355,-0.14556 0.0532,-0.22271 0.0177,-0.0772 0.0352,-0.15724 0.0526,-0.24025 0.0174,-0.083 0.0345,-0.16896 0.0513,-0.25784 0.0168,-0.0889 0.0333,-0.1807 0.0494,-0.27546 0.0161,-0.0948 0.0317,-0.19246 0.0469,-0.2931 0.0151,-0.10064 0.0297,-0.20422 0.0436,-0.31073 0.0139,-0.10652 0.0272,-0.21597 0.0398,-0.32835 0.0125,-0.11237 0.0243,-0.22768 0.0353,-0.34591 0.0109,-0.11823 0.021,-0.23937 0.0301,-0.36342 0.009,-0.12405 0.0172,-0.25101 0.0242,-0.38086 0.007,-0.12985 0.013,-0.26258 0.0177,-0.39819 0.005,-0.13561 0.008,-0.27409 0.0106,-0.41542 0.002,-0.14132 0.003,-0.2855 0.003,-0.4325 -4.3e-4,-0.147 -0.002,-0.29682 -0.006,-0.44943 -0.003,-0.15262 -0.008,-0.30803 -0.0147,-0.46621 -0.006,-0.15817 -0.0146,-0.31911 -0.0244,-0.48278 -0.01,-0.16366 -0.0213,-0.33006 -0.0347,-0.49915 -0.0134,-0.16908 -0.0286,-0.34086 -0.0457,-0.51529 -0.0171,-0.17443 -0.0362,-0.35151 -0.0573,-0.5312 -0.0211,-0.17969 -0.0442,-0.36198 -0.0695,-0.54684 -0.005,-0.0386 -0.0106,-0.0773 -0.0161,-0.11605 -1.15084,-0.51814 -2.32002,-0.9973 -3.50348,-1.43582 -0.0311,0.0238 -0.0621,0.0476 -0.0929,0.0714 -0.14773,0.11395 -0.29215,0.22758 -0.43328,0.34078 -0.14113,0.1132 -0.27898,0.22598 -0.41359,0.33822 -0.13462,0.11224 -0.26599,0.22395 -0.39418,0.33503 -0.12818,0.11107 -0.25317,0.22152 -0.37502,0.33123 -0.12185,0.10971 -0.24056,0.21868 -0.35617,0.32682 -0.11561,0.10814 -0.22813,0.21545 -0.33762,0.32183 -0.10948,0.10638 -0.21592,0.21183 -0.31939,0.31625 -0.10346,0.10443 -0.20394,0.20782 -0.3015,0.3101 -0.0976,0.10228 -0.19219,0.20344 -0.28396,0.30339 -0.0918,0.1 -0.18069,0.19869 -0.2668,0.29613 -0.0861,0.0974 -0.16943,0.19358 -0.25001,0.28833 -0.0806,0.0948 -0.15844,0.18811 -0.23363,0.28 -0.0752,0.0919 -0.14771,0.1823 -0.21765,0.27116 -0.0699,0.0889 -0.13727,0.17616 -0.20209,0.26182 -0.0648,0.0857 -0.12712,0.16968 -0.18698,0.25199 -0.0598,0.0823 -0.11726,0.16289 -0.17231,0.24168 -0.055,0.0788 -0.10772,0.15579 -0.1581,0.23092 -0.0504,0.0751 -0.0985,0.14839 -0.14438,0.21971 -0.0459,0.0713 -0.0896,0.14069 -0.13114,0.20806 -0.0416,0.0674 -0.081,0.13272 -0.11839,0.19599 -0.0374,0.0633 -0.0727,0.12447 -0.10615,0.18353 -0.0334,0.059 -0.0649,0.11596 -0.0944,0.17066 -0.0296,0.0547 -0.0573,0.10721 -0.0832,0.15744 -0.026,0.0502 -0.0501,0.0982 -0.0726,0.14384 -0.0225,0.0456 -0.0433,0.089 -0.0625,0.12992 -0.0192,0.0409 -0.0368,0.0795 -0.053,0.11565 -0.0161,0.0361 -0.0308,0.0699 -0.044,0.10109 -0.0132,0.0312 -0.0251,0.06 -0.0356,0.0862 -0.0105,0.0262 -0.0198,0.0499 -0.0278,0.0711 -0.008,0.0211 -0.0148,0.0397 -0.0206,0.0557 -0.006,0.016 -0.0104,0.0293 -0.0139,0.0401 -0.004,0.0107 -0.006,0.0187 -0.009,0.0268 -0.25722,0.80469 -0.5169,1.61718 -0.77535,2.42575 -2.01877,-0.59269 -4.08496,-1.04262 -6.16738,-1.34302 0.10117,-0.84282 0.20284,-1.68973 0.3035,-2.5285 10e-4,-0.008 0.002,-0.0167 0.003,-0.028 0.001,-0.0112 0.003,-0.0253 0.004,-0.0422 10e-4,-0.0169 0.003,-0.0366 0.004,-0.0592 10e-4,-0.0226 0.003,-0.048 0.004,-0.0762 10e-4,-0.0282 0.003,-0.0593 0.003,-0.0932 9.5e-4,-0.0339 0.002,-0.0707 0.002,-0.11023 3.6e-4,-0.0396 3.7e-4,-0.082 -8e-5,-0.12721 -4.5e-4,-0.0452 -10e-4,-0.0933 -0.003,-0.14414 -0.001,-0.0509 -0.004,-0.10454 -0.006,-0.16101 -0.003,-0.0565 -0.006,-0.11574 -0.0103,-0.1778 -0.004,-0.062 -0.009,-0.12688 -0.0149,-0.19448 -0.006,-0.0676 -0.0125,-0.13795 -0.0202,-0.21105 -0.008,-0.0731 -0.0164,-0.14893 -0.0262,-0.22747 -0.01,-0.0786 -0.0207,-0.15981 -0.0327,-0.24375 -0.0121,-0.0839 -0.0254,-0.17057 -0.0399,-0.25984 -0.0146,-0.0893 -0.0305,-0.18121 -0.0478,-0.27576 -0.0173,-0.0945 -0.036,-0.1917 -0.0562,-0.29145 -0.0202,-0.0997 -0.0419,-0.20206 -0.0653,-0.30692 -0.0233,-0.10485 -0.0483,-0.21225 -0.0749,-0.32214 -0.0267,-0.10989 -0.055,-0.22227 -0.0852,-0.33711 -0.0302,-0.11483 -0.0621,-0.23211 -0.096,-0.35179 -0.0339,-0.11968 -0.0697,-0.24175 -0.10749,-0.36617 -0.0378,-0.12443 -0.0776,-0.2512 -0.11951,-0.38025 -0.0419,-0.12906 -0.0859,-0.26041 -0.1321,-0.394 -0.0462,-0.13358 -0.0946,-0.2694 -0.14526,-0.40739 -0.0507,-0.13798 -0.10363,-0.27814 -0.15897,-0.42042 -0.0553,-0.14227 -0.11305,-0.28664 -0.17323,-0.43307 -0.0602,-0.14642 -0.12282,-0.29489 -0.18802,-0.44533 -0.0652,-0.15044 -0.13295,-0.30285 -0.20334,-0.45717 -0.0704,-0.15432 -0.14342,-0.31054 -0.21918,-0.46859 -0.0757,-0.15805 -0.15423,-0.31794 -0.23551,-0.47957 -0.0813,-0.16164 -0.16537,-0.32503 -0.25234,-0.49009 -0.0181,-0.0344 -0.0364,-0.069 -0.0548,-0.10355 -1.25864,-0.0933 -2.5212,-0.14365 -3.78328,-0.15096 -0.0211,0.033 -0.0421,0.066 -0.0629,0.0988 -0.0998,0.15761 -0.19669,0.31378 -0.29059,0.46842 -0.0939,0.15465 -0.18487,0.30777 -0.27298,0.45928 -0.0881,0.15151 -0.17335,0.30142 -0.25581,0.44964 -0.0825,0.14822 -0.16214,0.29475 -0.23912,0.43952 -0.077,0.14477 -0.15125,0.28777 -0.22291,0.42893 -0.0717,0.14116 -0.14069,0.28048 -0.20718,0.41789 -0.0665,0.13741 -0.13046,0.27291 -0.19197,0.40642 -0.0615,0.13351 -0.12056,0.26504 -0.17725,0.39452 -0.0567,0.12948 -0.11103,0.2569 -0.16308,0.38221 -0.0521,0.12531 -0.10183,0.24851 -0.14943,0.36952 -0.0476,0.12102 -0.093,0.23985 -0.13632,0.35645 -0.0433,0.1166 -0.0845,0.23096 -0.12377,0.34302 -0.0392,0.11206 -0.0765,0.22183 -0.11178,0.32925 -0.0353,0.10741 -0.0687,0.21248 -0.10035,0.31515 -0.0316,0.10266 -0.0614,0.20293 -0.0895,0.30074 -0.0281,0.0978 -0.0545,0.19318 -0.0793,0.28604 -0.0248,0.0929 -0.0479,0.18324 -0.0696,0.27107 -0.0217,0.0878 -0.0418,0.17312 -0.0605,0.25584 -0.0187,0.0827 -0.0361,0.16284 -0.0521,0.24036 -0.016,0.0775 -0.0307,0.15242 -0.0442,0.22467 -0.0135,0.0722 -0.0258,0.14184 -0.037,0.20876 -0.0112,0.0669 -0.0213,0.13115 -0.0304,0.19268 -0.009,0.0615 -0.0172,0.12033 -0.0244,0.17641 -0.007,0.0561 -0.0135,0.10942 -0.019,0.16 -0.006,0.0506 -0.0103,0.0984 -0.0143,0.14346 -0.004,0.0451 -0.007,0.0873 -0.0102,0.1268 -0.003,0.0395 -0.005,0.0762 -0.007,0.11004 -0.002,0.0339 -0.003,0.065 -0.004,0.0932 -9.3e-4,0.0283 -10e-4,0.0537 -0.002,0.0763 -3.1e-4,0.0226 -3.7e-4,0.0424 -2.8e-4,0.0594 9e-5,0.017 3.2e-4,0.0311 6e-4,0.0424 2.8e-4,0.0113 6.2e-4,0.0197 9.5e-4,0.0281 0.0335,0.84413 0.0674,1.69644 0.10106,2.54464 -2.09973,0.13352 -4.1952,0.41739 -6.25478,0.84734 -0.19319,-0.82659 -0.38731,-1.65719 -0.5796,-2.47981 -0.002,-0.008 -0.004,-0.0164 -0.007,-0.0274 -0.003,-0.011 -0.006,-0.0247 -0.0107,-0.041 -0.004,-0.0164 -0.01,-0.0354 -0.0161,-0.0572 -0.006,-0.0217 -0.0136,-0.0461 -0.022,-0.0731 -0.008,-0.027 -0.0179,-0.0566 -0.0286,-0.0888 -0.0107,-0.0322 -0.0226,-0.067 -0.0358,-0.10427 -0.0132,-0.0373 -0.0277,-0.0772 -0.0436,-0.11951 -0.0159,-0.0423 -0.0332,-0.0872 -0.052,-0.13448 -0.0188,-0.0473 -0.0391,-0.097 -0.0609,-0.14917 -0.0219,-0.0521 -0.0453,-0.10668 -0.0704,-0.16357 -0.0251,-0.0569 -0.052,-0.11612 -0.0805,-0.17765 -0.0286,-0.0615 -0.059,-0.12535 -0.0912,-0.1914 -0.0322,-0.066 -0.0663,-0.13434 -0.10239,-0.2048 -0.0361,-0.0705 -0.0741,-0.1431 -0.11415,-0.21785 -0.0401,-0.0748 -0.0822,-0.15161 -0.12641,-0.23051 -0.0442,-0.0789 -0.0906,-0.15986 -0.1392,-0.24278 -0.0486,-0.0829 -0.0994,-0.16784 -0.15251,-0.25465 -0.0531,-0.0868 -0.10851,-0.17553 -0.1663,-0.26609 -0.0578,-0.0906 -0.11796,-0.18294 -0.18059,-0.27709 -0.0626,-0.0941 -0.12772,-0.19005 -0.19535,-0.28764 -0.0676,-0.0976 -0.13779,-0.19685 -0.21057,-0.29772 -0.0728,-0.10087 -0.14817,-0.20334 -0.22625,-0.30733 -0.0781,-0.10399 -0.15883,-0.2095 -0.24235,-0.31645 -0.0835,-0.10694 -0.16979,-0.21532 -0.25889,-0.32505 -0.0891,-0.10973 -0.18102,-0.2208 -0.27583,-0.33314 -0.0948,-0.11233 -0.19252,-0.22593 -0.29318,-0.34069 -0.10066,-0.11477 -0.20427,-0.2307 -0.3109,-0.34771 -0.10663,-0.11701 -0.21627,-0.23509 -0.329,-0.35416 -0.11271,-0.11907 -0.22851,-0.23912 -0.34744,-0.36006 -0.11892,-0.12094 -0.24098,-0.24276 -0.36622,-0.36537 -0.12524,-0.12261 -0.25367,-0.24601 -0.38533,-0.3701 -0.13166,-0.12409 -0.26657,-0.24886 -0.40475,-0.37422 -0.0288,-0.0262 -0.0578,-0.0523 -0.0869,-0.0786 -1.21464,0.34283 -2.41829,0.72731 -3.60675,1.1521 -0.009,0.0382 -0.017,0.0764 -0.0253,0.1144 -0.0399,0.18226 -0.0775,0.36213 -0.11286,0.53957 -0.0353,0.17743 -0.0685,0.35243 -0.0994,0.52494 -0.031,0.17251 -0.0598,0.34253 -0.0866,0.51002 -0.0268,0.16748 -0.0516,0.33243 -0.0744,0.49479 -0.0228,0.16237 -0.0437,0.32215 -0.0628,0.47931 -0.019,0.15715 -0.0363,0.31168 -0.0518,0.46355 -0.0155,0.15186 -0.0292,0.30106 -0.0414,0.44756 -0.0121,0.1465 -0.0226,0.29029 -0.0316,0.43135 -0.009,0.14106 -0.0165,0.27938 -0.0225,0.41494 -0.006,0.13556 -0.0107,0.26835 -0.014,0.39834 -0.003,0.13 -0.005,0.2572 -0.006,0.38158 -8.2e-4,0.12438 -4.5e-4,0.24594 0.001,0.36466 10e-4,0.11872 0.004,0.2346 0.008,0.34763 0.004,0.11302 0.008,0.22318 0.0135,0.33046 0.005,0.10729 0.0117,0.2117 0.0187,0.31323 0.007,0.10152 0.0149,0.20016 0.0234,0.2959 0.008,0.0957 0.0176,0.18858 0.0273,0.27852 0.01,0.0899 0.0199,0.17698 0.0306,0.26111 0.0107,0.0841 0.0218,0.16535 0.0333,0.24367 0.0115,0.0783 0.0233,0.15373 0.0353,0.22624 0.012,0.0725 0.0243,0.14212 0.0367,0.20883 0.0124,0.0667 0.0249,0.13052 0.0374,0.19144 0.0125,0.0609 0.025,0.11896 0.0374,0.17412 0.0124,0.0552 0.0247,0.10744 0.0368,0.15686 0.0121,0.0494 0.024,0.096 0.0356,0.1397 0.0116,0.0437 0.0229,0.0846 0.0338,0.12265 0.0109,0.038 0.0213,0.0733 0.0313,0.10572 0.01,0.0324 0.0194,0.0621 0.0282,0.0889 0.009,0.0269 0.017,0.051 0.0244,0.0723 0.007,0.0213 0.0142,0.04 0.02,0.0559 0.006,0.0159 0.0109,0.0291 0.0151,0.0396 0.004,0.0105 0.007,0.0183 0.0105,0.0261 0.32019,0.78176 0.64353,1.57108 0.96528,2.35661 -1.92744,0.84362 -3.79944,1.82706 -5.58776,2.9355 -0.46426,-0.71066 -0.93075,-1.42478 -1.3928,-2.13202 -0.005,-0.007 -0.009,-0.0141 -0.0155,-0.0235 -0.006,-0.009 -0.0143,-0.021 -0.0241,-0.0349 -0.01,-0.0139 -0.0213,-0.03 -0.0346,-0.0482 -0.0134,-0.0183 -0.0286,-0.0387 -0.0457,-0.0611 -0.0171,-0.0225 -0.0362,-0.0471 -0.0573,-0.0736 -0.0211,-0.0266 -0.0441,-0.0552 -0.0693,-0.0857 -0.0252,-0.0305 -0.0524,-0.063 -0.0818,-0.0974 -0.0294,-0.0344 -0.061,-0.0706 -0.0948,-0.10861 -0.0338,-0.038 -0.0699,-0.0778 -0.10826,-0.11934 -0.0384,-0.0415 -0.0791,-0.0848 -0.12214,-0.12961 -0.0431,-0.0449 -0.0885,-0.0913 -0.13644,-0.13939 -0.0479,-0.048 -0.0983,-0.0976 -0.15116,-0.14866 -0.0529,-0.0511 -0.10829,-0.10356 -0.16627,-0.15744 -0.058,-0.0539 -0.11855,-0.10913 -0.18176,-0.16567 -0.0632,-0.0565 -0.12907,-0.11436 -0.19763,-0.17337 -0.0686,-0.059 -0.13983,-0.11922 -0.21385,-0.18053 -0.074,-0.0613 -0.1508,-0.12372 -0.2304,-0.18713 -0.0796,-0.0634 -0.16201,-0.12783 -0.24728,-0.19316 -0.0853,-0.0653 -0.17342,-0.13157 -0.26447,-0.19861 -0.0911,-0.067 -0.18502,-0.13491 -0.28195,-0.20349 -0.0969,-0.0686 -0.19681,-0.13785 -0.2997,-0.20775 -0.10289,-0.0699 -0.20878,-0.1404 -0.31771,-0.21141 -0.10894,-0.071 -0.22092,-0.14254 -0.33597,-0.21447 -0.11506,-0.0719 -0.2332,-0.14427 -0.35445,-0.2169 -0.12126,-0.0726 -0.24563,-0.14558 -0.37314,-0.21871 -0.12752,-0.0731 -0.25818,-0.14646 -0.39202,-0.21988 -0.13384,-0.0734 -0.27086,-0.14692 -0.41108,-0.2204 -0.14021,-0.0735 -0.28364,-0.14695 -0.43028,-0.22028 -0.14665,-0.0733 -0.29652,-0.14655 -0.44963,-0.21952 -0.15312,-0.073 -0.30948,-0.1457 -0.46911,-0.21808 -0.15962,-0.0724 -0.32251,-0.14441 -0.48867,-0.21598 -0.16616,-0.0716 -0.3356,-0.14269 -0.50833,-0.21323 -0.036,-0.0147 -0.0722,-0.0294 -0.10856,-0.0441 -1.02413,0.73759 -2.02369,1.51055 -2.99519,2.3162 0.005,0.0388 0.0102,0.0776 0.0154,0.11616 0.0248,0.18491 0.051,0.36679 0.0785,0.54562 0.0275,0.17882 0.0562,0.35459 0.0861,0.52729 0.0299,0.1727 0.061,0.34233 0.0931,0.50888 0.0321,0.16655 0.0653,0.33002 0.0993,0.49039 0.0341,0.16038 0.0691,0.31767 0.10496,0.47187 0.0358,0.15419 0.0725,0.30529 0.1099,0.4533 0.0374,0.148 0.0755,0.29291 0.11419,0.43472 0.0387,0.14182 0.078,0.28053 0.1178,0.41616 0.0398,0.13563 0.0801,0.26816 0.12076,0.39762 0.0407,0.12945 0.0817,0.25582 0.12306,0.37911 0.0413,0.1233 0.0829,0.24352 0.12469,0.36068 0.0418,0.11717 0.0837,0.23127 0.12567,0.34233 0.042,0.11106 0.084,0.21908 0.12601,0.32407 0.042,0.10499 0.0839,0.20696 0.1257,0.30593 0.0418,0.099 0.0834,0.19493 0.12474,0.28792 0.0414,0.093 0.0824,0.183 0.12315,0.27007 0.0407,0.0871 0.0811,0.17118 0.12093,0.25238 0.0399,0.0812 0.0793,0.15949 0.11808,0.23489 0.0388,0.0754 0.0771,0.14792 0.11462,0.21759 0.0376,0.0697 0.0744,0.13651 0.11054,0.20053 0.0361,0.064 0.0714,0.12524 0.10586,0.1837 0.0344,0.0585 0.068,0.11414 0.10058,0.16712 0.0326,0.053 0.0642,0.10323 0.0947,0.15081 0.0305,0.0476 0.06,0.0925 0.0883,0.13481 0.0283,0.0423 0.0554,0.082 0.0812,0.11909 0.0259,0.0371 0.0504,0.0717 0.0737,0.1037 0.0232,0.032 0.0451,0.0616 0.0655,0.0887 0.0204,0.0271 0.0394,0.0517 0.0569,0.0739 0.0175,0.0222 0.0334,0.0421 0.0477,0.0596 0.0143,0.0175 0.027,0.0327 0.0379,0.0457 0.011,0.0129 0.0202,0.0236 0.0277,0.0321 0.007,0.008 0.0131,0.0147 0.0188,0.0209 0.56826,0.6251 1.14206,1.25624 1.71308,1.88434 -1.52267,1.45197 -2.94542,3.01637 -4.24678,4.6696 -0.67932,-0.50902 -1.36193,-1.02052 -2.038,-1.52709 -0.007,-0.005 -0.0135,-0.0101 -0.0226,-0.0167 -0.009,-0.007 -0.0206,-0.0149 -0.0346,-0.0245 -0.0139,-0.01 -0.0302,-0.0209 -0.049,-0.0335 -0.0188,-0.0126 -0.0401,-0.0265 -0.0639,-0.0418 -0.0238,-0.0153 -0.0501,-0.0318 -0.079,-0.0496 -0.0289,-0.0178 -0.0604,-0.0368 -0.0945,-0.0569 -0.0341,-0.0201 -0.0708,-0.0413 -0.11021,-0.0635 -0.0394,-0.0222 -0.0815,-0.0455 -0.12625,-0.0696 -0.0448,-0.0242 -0.0923,-0.0492 -0.14255,-0.0751 -0.0503,-0.0259 -0.10328,-0.0526 -0.1591,-0.08 -0.0558,-0.0274 -0.11444,-0.0556 -0.17589,-0.0843 -0.0615,-0.0288 -0.12573,-0.0581 -0.19289,-0.088 -0.0671,-0.0299 -0.13717,-0.0603 -0.21008,-0.0911 -0.0729,-0.0308 -0.14873,-0.062 -0.22747,-0.0935 -0.0787,-0.0315 -0.1604,-0.0633 -0.24501,-0.0953 -0.0846,-0.032 -0.17216,-0.0642 -0.26269,-0.0965 -0.0905,-0.0323 -0.18403,-0.0647 -0.28051,-0.097 -0.0965,-0.0324 -0.19596,-0.0647 -0.29843,-0.0969 -0.10248,-0.0322 -0.20796,-0.0643 -0.31645,-0.0962 -0.1085,-0.0319 -0.22001,-0.0635 -0.33454,-0.0948 -0.11454,-0.0313 -0.23209,-0.0622 -0.35268,-0.0927 -0.12059,-0.0305 -0.24421,-0.0605 -0.37087,-0.09 -0.12665,-0.0295 -0.25633,-0.0584 -0.38906,-0.0866 -0.13272,-0.0282 -0.26847,-0.0558 -0.40725,-0.0826 -0.13879,-0.0268 -0.2806,-0.0528 -0.42544,-0.0779 -0.14484,-0.0251 -0.2927,-0.0493 -0.44358,-0.0725 -0.15088,-0.0232 -0.30477,-0.0454 -0.46167,-0.0665 -0.15689,-0.0211 -0.31679,-0.0411 -0.47968,-0.0598 -0.16288,-0.0188 -0.32875,-0.0363 -0.49759,-0.0525 -0.16884,-0.0162 -0.34065,-0.0311 -0.5154,-0.0445 -0.17475,-0.0134 -0.35245,-0.0254 -0.53308,-0.0358 -0.18062,-0.0104 -0.36416,-0.0193 -0.5506,-0.0265 -0.0389,-0.002 -0.0779,-0.003 -0.11708,-0.004 -0.71011,1.04338 -1.38502,2.1116 -2.02238,3.20093 0.018,0.0348 0.0361,0.0694 0.0542,0.1039 0.0866,0.16528 0.17339,0.32723 0.26037,0.48587 0.087,0.15865 0.17409,0.31399 0.26125,0.46605 0.0872,0.15206 0.17437,0.30084 0.2615,0.44636 0.0871,0.14552 0.17419,0.2878 0.26107,0.42684 0.0869,0.13905 0.17359,0.27488 0.26001,0.40751 0.0864,0.13264 0.17256,0.26208 0.25832,0.38838 0.0858,0.12629 0.17111,0.24943 0.25598,0.36945 0.0849,0.12002 0.16925,0.23693 0.25304,0.35077 0.0838,0.11384 0.16697,0.2246 0.24946,0.33233 0.0825,0.10774 0.1643,0.21245 0.2453,0.31417 0.081,0.10173 0.16122,0.20047 0.24054,0.29628 0.0793,0.0958 0.15774,0.1887 0.23517,0.2787 0.0774,0.09 0.15389,0.17713 0.22925,0.26143 0.0754,0.0843 0.14965,0.16577 0.22275,0.24448 0.0731,0.0787 0.14503,0.15466 0.21569,0.2279 0.0707,0.0732 0.14006,0.14377 0.2081,0.21166 0.068,0.0679 0.13471,0.13314 0.19995,0.1958 0.0652,0.0627 0.12903,0.12276 0.1913,0.18034 0.0623,0.0576 0.123,0.11264 0.18213,0.16527 0.0591,0.0526 0.11663,0.10281 0.17245,0.15063 0.0558,0.0478 0.10995,0.0933 0.16231,0.13641 0.0524,0.0431 0.10294,0.084 0.15167,0.12264 0.0487,0.0386 0.0956,0.0751 0.14059,0.10933 0.045,0.0343 0.088,0.0664 0.12905,0.0965 0.041,0.0301 0.0801,0.0581 0.11709,0.0841 0.037,0.026 0.0719,0.0501 0.1047,0.0723 0.0328,0.0222 0.0634,0.0424 0.0919,0.0609 0.0285,0.0185 0.0547,0.0351 0.0787,0.05 0.024,0.0149 0.0458,0.0281 0.0652,0.0397 0.0194,0.0116 0.0365,0.0215 0.0513,0.0299 0.0147,0.008 0.0271,0.0153 0.037,0.0207 0.01,0.005 0.0174,0.009 0.0248,0.0132 0.74779,0.39304 1.50284,0.78987 2.25425,1.18479 -0.93424,1.88519 -1.73613,3.84185 -2.39357,5.84047 -0.81245,-0.24598 -1.62883,-0.49317 -2.43738,-0.73795 -0.008,-0.002 -0.0161,-0.005 -0.027,-0.008 -0.0109,-0.003 -0.0245,-0.007 -0.0409,-0.0112 -0.0164,-0.004 -0.0356,-0.009 -0.0575,-0.0147 -0.022,-0.005 -0.0467,-0.0112 -0.0743,-0.0175 -0.0276,-0.006 -0.058,-0.0128 -0.0912,-0.0196 -0.0332,-0.007 -0.0693,-0.0139 -0.1082,-0.0211 -0.0389,-0.007 -0.0807,-0.0146 -0.12529,-0.022 -0.0446,-0.007 -0.0921,-0.0149 -0.14245,-0.0222 -0.0503,-0.007 -0.10355,-0.0147 -0.15964,-0.0218 -0.0561,-0.007 -0.11504,-0.0141 -0.17688,-0.0208 -0.0618,-0.007 -0.12654,-0.0131 -0.19412,-0.0191 -0.0676,-0.006 -0.13803,-0.0116 -0.21135,-0.0167 -0.0733,-0.005 -0.14951,-0.01 -0.22857,-0.0137 -0.079,-0.004 -0.16096,-0.007 -0.24573,-0.0101 -0.0848,-0.003 -0.17238,-0.005 -0.26283,-0.006 -0.0905,-0.001 -0.18375,-0.001 -0.27986,-8.4e-4 -0.0961,6.2e-4 -0.19505,0.002 -0.29678,0.005 -0.10174,0.003 -0.20628,0.006 -0.31359,0.011 -0.10732,0.005 -0.21741,0.0107 -0.33026,0.0179 -0.11285,0.007 -0.22845,0.0156 -0.34678,0.0254 -0.11833,0.01 -0.23938,0.0209 -0.36313,0.0335 -0.12374,0.0126 -0.25018,0.0266 -0.37927,0.0423 -0.1291,0.0156 -0.26086,0.0328 -0.39523,0.0517 -0.13438,0.0189 -0.27137,0.0394 -0.41095,0.0617 -0.13957,0.0223 -0.28173,0.0464 -0.42642,0.0723 -0.14469,0.0259 -0.29192,0.0538 -0.44164,0.0836 -0.14972,0.0298 -0.30192,0.0616 -0.45657,0.0954 -0.15465,0.0338 -0.31174,0.0697 -0.47122,0.10784 -0.15947,0.0381 -0.32134,0.0783 -0.48553,0.12086 -0.1642,0.0425 -0.33073,0.0873 -0.49954,0.13448 -0.1688,0.0471 -0.33988,0.0967 -0.51318,0.14865 -0.17329,0.052 -0.3488,0.10642 -0.52646,0.16341 -0.0371,0.0119 -0.0742,0.0239 -0.11149,0.036 -0.31042,1.22333 -0.57928,2.45796 -0.80563,3.69959 0.0288,0.0265 0.0576,0.0529 0.0864,0.0791 0.13788,0.1257 0.27486,0.24819 0.41085,0.36752 0.13599,0.11933 0.27099,0.2355 0.4049,0.34858 0.13391,0.11308 0.26674,0.22306 0.39839,0.33001 0.13164,0.10695 0.26211,0.21086 0.39131,0.31181 0.1292,0.10095 0.25714,0.19892 0.38371,0.294 0.12658,0.0951 0.25179,0.18726 0.37557,0.2766 0.12377,0.0893 0.2461,0.17587 0.36691,0.25963 0.1208,0.0837 0.24008,0.16475 0.35774,0.24307 0.11767,0.0783 0.23372,0.15394 0.34809,0.22697 0.11437,0.073 0.22705,0.14344 0.33796,0.21132 0.11091,0.0679 0.22006,0.13324 0.32736,0.19615 0.1073,0.0629 0.21277,0.12336 0.31631,0.18145 0.10355,0.0581 0.20519,0.11382 0.30484,0.16726 0.0996,0.0534 0.19732,0.10459 0.29294,0.15355 0.0956,0.049 0.18918,0.0957 0.28062,0.14038 0.0915,0.0447 0.18079,0.0872 0.26794,0.12773 0.0872,0.0405 0.17213,0.079 0.25487,0.1156 0.0827,0.0366 0.16323,0.0712 0.24143,0.10404 0.0782,0.0328 0.15412,0.0638 0.22767,0.093 0.0736,0.0292 0.14477,0.0567 0.21358,0.0826 0.0688,0.0258 0.13521,0.05 0.19917,0.0727 0.064,0.0226 0.12546,0.0437 0.18447,0.0634 0.059,0.0196 0.11553,0.0378 0.1695,0.0547 0.054,0.0168 0.10542,0.0323 0.15427,0.0465 0.0489,0.0142 0.0951,0.0272 0.1388,0.039 0.0437,0.0118 0.0847,0.0225 0.12309,0.0321 0.0384,0.01 0.0741,0.0182 0.1072,0.0258 0.0331,0.008 0.0634,0.0143 0.0911,0.0201 0.0277,0.006 0.0526,0.0108 0.0748,0.015 0.0222,0.004 0.0417,0.008 0.0584,0.0106 0.0167,0.003 0.0307,0.005 0.0419,0.007 0.0112,0.002 0.0195,0.003 0.0279,0.004 0.83712,0.11359 1.68237,0.22824 2.52353,0.34235 -0.23312,2.09102 -0.31744,4.20395 -0.25166,6.30689 -0.84758,0.0467 -1.69928,0.0937 -2.54279,0.14019 -0.008,4.6e-4 -0.0168,9.3e-4 -0.0281,0.002 -0.0113,7.9e-4 -0.0254,0.002 -0.0423,0.003 -0.0169,0.002 -0.0366,0.003 -0.0591,0.006 -0.0225,0.002 -0.0477,0.005 -0.0758,0.009 -0.028,0.004 -0.0589,0.008 -0.0924,0.0128 -0.0336,0.005 -0.0699,0.0106 -0.10891,0.0171 -0.039,0.007 -0.0808,0.0139 -0.12526,0.0222 -0.0445,0.008 -0.0916,0.0175 -0.14146,0.0278 -0.0498,0.0103 -0.10234,0.0216 -0.15748,0.0341 -0.0551,0.0125 -0.11293,0.0261 -0.17332,0.041 -0.0604,0.0149 -0.12338,0.031 -0.18894,0.0485 -0.0655,0.0175 -0.13368,0.0363 -0.20432,0.0566 -0.0707,0.0203 -0.14382,0.042 -0.21948,0.0653 -0.0756,0.0233 -0.15379,0.0481 -0.23436,0.0746 -0.0806,0.0265 -0.16357,0.0546 -0.24896,0.0845 -0.0854,0.0299 -0.17316,0.0615 -0.26326,0.0949 -0.0901,0.0335 -0.18255,0.0687 -0.27726,0.10597 -0.0947,0.0372 -0.19171,0.0764 -0.29093,0.11757 -0.0992,0.0412 -0.20064,0.0844 -0.30423,0.12973 -0.1036,0.0453 -0.20935,0.0928 -0.3172,0.14243 -0.10785,0.0497 -0.21779,0.10152 -0.32977,0.15568 -0.11197,0.0541 -0.22598,0.1106 -0.34195,0.16944 -0.11596,0.0588 -0.23389,0.12004 -0.35372,0.18372 -0.11982,0.0637 -0.24153,0.12982 -0.36506,0.19851 -0.12353,0.0687 -0.24889,0.13993 -0.37598,0.2138 -0.12709,0.0739 -0.25593,0.15036 -0.38643,0.22956 -0.1305,0.0792 -0.26266,0.1611 -0.39641,0.2458 -0.13375,0.0847 -0.26908,0.17216 -0.40591,0.26249 -0.13684,0.0903 -0.27517,0.18352 -0.41492,0.27964 -0.13975,0.0961 -0.28092,0.19517 -0.42342,0.29721 -0.14249,0.10205 -0.28632,0.2071 -0.43138,0.31522 -0.14507,0.10811 -0.29137,0.21929 -0.43883,0.33361 -0.0308,0.0239 -0.0616,0.0479 -0.0924,0.072 0.1267,1.25572 0.29633,2.50785 0.50829,3.75202 0.0362,0.015 0.0723,0.03 0.10827,0.0448 0.17255,0.071 0.34317,0.13921 0.51177,0.20484 0.1686,0.0656 0.33519,0.12861 0.4997,0.18907 0.16451,0.0605 0.32694,0.11838 0.48723,0.17385 0.16029,0.0555 0.31843,0.1085 0.47436,0.15917 0.15594,0.0507 0.30967,0.099 0.46113,0.14503 0.15146,0.0461 0.30065,0.0898 0.44752,0.13147 0.14687,0.0416 0.29141,0.0811 0.43357,0.11848 0.14217,0.0374 0.28195,0.0727 0.41931,0.10606 0.13736,0.0333 0.27228,0.0647 0.40473,0.0942 0.13244,0.0295 0.26241,0.0571 0.38985,0.083 0.12744,0.0259 0.25236,0.0499 0.3747,0.0724 0.12235,0.0224 0.24213,0.0431 0.3593,0.0623 0.11718,0.0192 0.23174,0.0368 0.34366,0.0529 0.11192,0.0161 0.22119,0.0308 0.32779,0.0441 0.10659,0.0133 0.21051,0.0252 0.31172,0.0359 0.1012,0.0107 0.1997,0.0201 0.29546,0.0284 0.0958,0.008 0.18878,0.0154 0.27903,0.0215 0.0903,0.006 0.17775,0.0111 0.26246,0.0152 0.0847,0.004 0.16663,0.007 0.24575,0.01 0.0791,0.002 0.15544,0.004 0.22894,0.005 0.0735,7.5e-4 0.14417,7.7e-4 0.21201,1.7e-4 0.0678,-6e-4 0.13285,-0.002 0.19502,-0.004 0.0622,-0.002 0.1215,-0.004 0.17797,-0.007 0.0565,-0.003 0.11011,-0.006 0.16088,-0.009 0.0508,-0.003 0.0987,-0.007 0.14376,-0.0108 0.0451,-0.004 0.0873,-0.008 0.12665,-0.012 0.0394,-0.004 0.0759,-0.008 0.10954,-0.0124 0.0337,-0.004 0.0645,-0.008 0.0925,-0.0123 0.028,-0.004 0.0531,-0.008 0.0755,-0.0115 0.0223,-0.004 0.0418,-0.007 0.0585,-0.01 0.0167,-0.003 0.0306,-0.006 0.0417,-0.008 0.0111,-0.002 0.0193,-0.004 0.0275,-0.006 0.82549,-0.17958 1.65897,-0.36093 2.48844,-0.5414 0.4961,2.04465 1.13954,4.05899 1.9206,6.01262 -0.78049,0.3338 -1.56476,0.6692 -2.3415,1.00141 -0.008,0.003 -0.0155,0.007 -0.0258,0.0112 -0.0103,0.005 -0.0232,0.0104 -0.0385,0.0177 -0.0154,0.007 -0.0332,0.0157 -0.0535,0.0257 -0.0203,0.01 -0.043,0.0214 -0.0681,0.0344 -0.0251,0.013 -0.0526,0.0275 -0.0825,0.0436 -0.0298,0.0161 -0.062,0.0339 -0.0965,0.0534 -0.0344,0.0195 -0.0712,0.0407 -0.11013,0.0637 -0.0389,0.023 -0.0801,0.0478 -0.12341,0.0745 -0.0433,0.0267 -0.0888,0.0553 -0.13633,0.0859 -0.0476,0.0306 -0.0972,0.0631 -0.14885,0.0978 -0.0517,0.0346 -0.10534,0.0713 -0.16097,0.11016 -0.0556,0.0388 -0.1132,0.0798 -0.17265,0.12305 -0.0595,0.0432 -0.12079,0.0887 -0.18392,0.1364 -0.0631,0.0478 -0.12806,0.0978 -0.19471,0.15024 -0.0667,0.0524 -0.13504,0.10725 -0.20506,0.16452 -0.07,0.0573 -0.14169,0.11699 -0.21492,0.17925 -0.0732,0.0623 -0.14803,0.12703 -0.2243,0.19441 -0.0763,0.0674 -0.15402,0.13734 -0.23316,0.20998 -0.0792,0.0726 -0.15968,0.14793 -0.24152,0.22596 -0.0818,0.078 -0.16499,0.15878 -0.24935,0.24233 -0.0844,0.0836 -0.16994,0.16988 -0.25664,0.25907 -0.0867,0.0892 -0.17452,0.18123 -0.26338,0.27618 -0.0888,0.0949 -0.17873,0.1928 -0.26955,0.29362 -0.0908,0.10082 -0.18256,0.2046 -0.27515,0.3114 -0.0926,0.1068 -0.18602,0.21661 -0.28018,0.32949 -0.0942,0.11288 -0.18907,0.22883 -0.28461,0.34789 -0.0955,0.11905 -0.19172,0.24122 -0.28844,0.36655 -0.0967,0.12533 -0.19397,0.25381 -0.29165,0.3855 -0.0977,0.13168 -0.19581,0.26656 -0.29426,0.40468 -0.0984,0.13812 -0.19722,0.27948 -0.29622,0.42411 -0.099,0.14463 -0.19823,0.29253 -0.29757,0.44374 -0.0993,0.15121 -0.19879,0.30573 -0.29825,0.46359 -0.0208,0.0329 -0.0415,0.066 -0.0623,0.0993 0.54854,1.13666 1.13618,2.25525 1.76089,3.35189 0.0391,0.002 0.0782,0.003 0.11706,0.005 0.18642,0.008 0.37009,0.0134 0.55096,0.0174 0.18088,0.004 0.35897,0.006 0.53424,0.007 0.17527,5.4e-4 0.34771,-5.9e-4 0.51731,-0.003 0.16959,-0.003 0.33633,-0.007 0.50019,-0.0127 0.16386,-0.006 0.32484,-0.0129 0.48292,-0.0214 0.15808,-0.009 0.31325,-0.0184 0.4655,-0.0295 0.15225,-0.0111 0.30157,-0.0235 0.44795,-0.037 0.14638,-0.0135 0.28981,-0.0281 0.43029,-0.0437 0.14048,-0.0156 0.27799,-0.0323 0.41254,-0.0499 0.13455,-0.0176 0.26613,-0.0361 0.39473,-0.0554 0.1286,-0.0193 0.25422,-0.0394 0.37685,-0.0602 0.12264,-0.0208 0.24229,-0.0423 0.35895,-0.0643 0.11666,-0.0221 0.23034,-0.0447 0.34103,-0.0678 0.11069,-0.0231 0.21839,-0.0467 0.3231,-0.0707 0.10472,-0.024 0.20646,-0.0483 0.30521,-0.0729 0.0988,-0.0246 0.19454,-0.0494 0.28735,-0.0744 0.0928,-0.025 0.18266,-0.0501 0.26955,-0.0753 0.0869,-0.0252 0.17083,-0.0504 0.25183,-0.0755 0.081,-0.0251 0.15905,-0.0502 0.23419,-0.0751 0.0751,-0.0249 0.14736,-0.0496 0.21667,-0.074 0.0693,-0.0244 0.13575,-0.0486 0.19929,-0.0724 0.0635,-0.0238 0.12422,-0.0471 0.18205,-0.07 0.0578,-0.0229 0.11281,-0.0453 0.16497,-0.0671 0.0522,-0.0218 0.10152,-0.043 0.14808,-0.0635 0.0466,-0.0205 0.0904,-0.0403 0.1314,-0.0593 0.041,-0.019 0.0793,-0.0372 0.11492,-0.0545 0.0356,-0.0173 0.0685,-0.0337 0.0987,-0.0492 0.0302,-0.0154 0.0578,-0.0298 0.0827,-0.0432 0.0249,-0.0133 0.0472,-0.0256 0.067,-0.0366 0.0197,-0.011 0.0369,-0.0209 0.0516,-0.0295 0.0146,-0.009 0.0268,-0.0158 0.0364,-0.0217 0.01,-0.006 0.0168,-0.0104 0.0239,-0.0149 0.71429,-0.45108 1.43548,-0.90656 2.15319,-1.35984 1.1655,1.75167 2.45908,3.42446 3.86121,4.99313 -0.61925,0.58061 -1.24151,1.16402 -1.85778,1.74186 -0.006,0.006 -0.0123,0.0115 -0.0204,0.0194 -0.008,0.008 -0.0182,0.0178 -0.0302,0.0298 -0.012,0.012 -0.0258,0.0262 -0.0415,0.0425 -0.0157,0.0163 -0.0331,0.0348 -0.0523,0.0556 -0.0192,0.0208 -0.0401,0.0438 -0.0626,0.0692 -0.0225,0.0254 -0.0467,0.0531 -0.0724,0.0831 -0.0257,0.0301 -0.053,0.0626 -0.0817,0.0975 -0.0287,0.0349 -0.0589,0.0723 -0.0905,0.11224 -0.0316,0.0399 -0.0645,0.0823 -0.0987,0.12734 -0.0342,0.045 -0.0697,0.0926 -0.10644,0.14279 -0.0367,0.0502 -0.0746,0.10305 -0.11357,0.15858 -0.039,0.0555 -0.0791,0.11373 -0.12016,0.17467 -0.0411,0.0609 -0.0832,0.12463 -0.12617,0.19109 -0.043,0.0665 -0.0869,0.1357 -0.13159,0.20777 -0.0447,0.0721 -0.0902,0.14696 -0.13642,0.22473 -0.0462,0.0778 -0.0931,0.1584 -0.14066,0.24195 -0.0475,0.0835 -0.0957,0.16999 -0.14427,0.25939 -0.0486,0.0894 -0.0978,0.18175 -0.14729,0.27707 -0.0495,0.0953 -0.0995,0.19363 -0.14967,0.29494 -0.0502,0.10131 -0.10073,0.20564 -0.15143,0.313 -0.0507,0.10736 -0.10159,0.21776 -0.15255,0.33122 -0.051,0.11346 -0.10202,0.22999 -0.15304,0.3496 -0.051,0.11961 -0.10201,0.24231 -0.15287,0.36811 -0.0509,0.1258 -0.10158,0.2547 -0.15206,0.38673 -0.0505,0.13202 -0.10071,0.26717 -0.15059,0.40544 -0.0499,0.13828 -0.0994,0.27969 -0.14846,0.42425 -0.0491,0.14455 -0.0977,0.29225 -0.14567,0.4431 -0.048,0.15085 -0.0955,0.30485 -0.14222,0.462 -0.0468,0.15715 -0.0928,0.31746 -0.1381,0.48092 -0.0453,0.16346 -0.0897,0.33008 -0.13331,0.49985 -0.0436,0.16976 -0.0862,0.34268 -0.12784,0.51875 -0.0416,0.17607 -0.0822,0.35528 -0.12172,0.53764 -0.008,0.0381 -0.0164,0.0762 -0.0246,0.11456 0.90422,0.88049 1.83901,1.73064 2.80112,2.54749 0.0374,-0.0117 0.0746,-0.0235 0.11173,-0.0353 0.17779,-0.0566 0.35236,-0.11394 0.5237,-0.17205 0.17134,-0.0581 0.33945,-0.11693 0.50433,-0.17636 0.16488,-0.0594 0.32654,-0.11947 0.48499,-0.18001 0.15844,-0.0605 0.31367,-0.12157 0.46569,-0.18299 0.15202,-0.0614 0.30084,-0.12322 0.44647,-0.18529 0.14563,-0.0621 0.28807,-0.12444 0.42733,-0.18695 0.13926,-0.0625 0.27535,-0.12521 0.40829,-0.18795 0.13294,-0.0627 0.26272,-0.12553 0.38938,-0.18827 0.12666,-0.0628 0.25018,-0.12544 0.37061,-0.18797 0.12042,-0.0625 0.23774,-0.12491 0.35199,-0.18702 0.11424,-0.0621 0.22542,-0.12396 0.33354,-0.18543 0.10814,-0.0615 0.21322,-0.12258 0.31531,-0.18321 0.10208,-0.0606 0.20115,-0.12079 0.29726,-0.18037 0.0961,-0.0596 0.18924,-0.11858 0.27945,-0.17691 0.0902,-0.0583 0.17749,-0.11597 0.26189,-0.17284 0.0844,-0.0569 0.16591,-0.11297 0.24458,-0.16818 0.0787,-0.0552 0.15451,-0.10955 0.22755,-0.16292 0.073,-0.0534 0.1433,-0.10575 0.21082,-0.15707 0.0675,-0.0513 0.13229,-0.10158 0.19438,-0.15066 0.0621,-0.0491 0.12151,-0.097 0.17829,-0.14369 0.0568,-0.0467 0.11093,-0.0921 0.16252,-0.13615 0.0516,-0.0441 0.1006,-0.0868 0.14712,-0.12807 0.0465,-0.0413 0.0905,-0.0811 0.13207,-0.11947 0.0416,-0.0383 0.0807,-0.0751 0.11743,-0.11034 0.0367,-0.0352 0.0711,-0.0688 0.10317,-0.10069 0.0321,-0.0319 0.0618,-0.0621 0.0893,-0.0906 0.0275,-0.0284 0.0528,-0.0551 0.0759,-0.0799 0.0231,-0.0248 0.0441,-0.0478 0.0629,-0.0688 0.0189,-0.0211 0.0356,-0.0402 0.0504,-0.0573 0.0148,-0.0171 0.0275,-0.0322 0.0384,-0.0453 0.0108,-0.0131 0.0197,-0.024 0.0268,-0.0329 0.007,-0.009 0.0122,-0.0155 0.0173,-0.0222 0.51693,-0.66818 1.03884,-1.34286 1.55825,-2.01427 1.69431,1.2474 3.482,2.37688 5.3361,3.37139 -0.38332,0.75739 -0.76852,1.51845 -1.14999,2.27221 -0.004,0.008 -0.008,0.0151 -0.0126,0.0252 -0.005,0.0101 -0.011,0.0229 -0.0182,0.0383 -0.007,0.0154 -0.0153,0.0334 -0.0244,0.0541 -0.009,0.0207 -0.0192,0.0441 -0.0301,0.0701 -0.0109,0.0261 -0.0227,0.0549 -0.0351,0.0864 -0.0125,0.0315 -0.0257,0.0658 -0.0396,0.10289 -0.0139,0.0371 -0.0284,0.0769 -0.0434,0.11957 -0.015,0.0426 -0.0306,0.0881 -0.0466,0.13641 -0.016,0.0483 -0.0325,0.0994 -0.0492,0.15343 -0.0168,0.054 -0.0339,0.11085 -0.0512,0.17058 -0.0173,0.0597 -0.0349,0.12235 -0.0525,0.18786 -0.0177,0.0655 -0.0354,0.13392 -0.0532,0.20524 -0.0178,0.0713 -0.0355,0.14555 -0.0532,0.22271 -0.0177,0.0772 -0.0352,0.15724 -0.0526,0.24025 -0.0174,0.083 -0.0345,0.16896 -0.0513,0.25784 -0.0168,0.0889 -0.0333,0.1807 -0.0494,0.27546 -0.0161,0.0948 -0.0317,0.19246 -0.0469,0.2931 -0.0151,0.10064 -0.0297,0.20422 -0.0436,0.31073 -0.0139,0.10651 -0.0272,0.21596 -0.0398,0.32834 -0.0125,0.11238 -0.0243,0.22769 -0.0353,0.34592 -0.0109,0.11822 -0.021,0.23937 -0.0301,0.36342 -0.009,0.12405 -0.0172,0.25101 -0.0242,0.38086 -0.007,0.12985 -0.013,0.26258 -0.0177,0.39819 -0.005,0.13561 -0.008,0.27409 -0.0106,0.41541 -0.002,0.14133 -0.003,0.28551 -0.003,0.43251 4.3e-4,0.14699 0.002,0.29682 0.006,0.44943 0.003,0.15262 0.008,0.30803 0.0147,0.46621 0.006,0.15817 0.0146,0.31911 0.0244,0.48277 0.01,0.16367 0.0213,0.33007 0.0347,0.49915 0.0134,0.16909 0.0286,0.34087 0.0457,0.5153 0.0171,0.17443 0.0362,0.35151 0.0573,0.5312 0.0211,0.17968 0.0442,0.36198 0.0695,0.54684 0.005,0.0386 0.0106,0.0772 0.0161,0.11605 1.15084,0.51813 2.32002,0.9973 3.50348,1.43582 0.0311,-0.0238 0.0621,-0.0476 0.0929,-0.0714 0.14773,-0.11395 0.29215,-0.22758 0.43328,-0.34078 0.14113,-0.11321 0.27898,-0.22598 0.41359,-0.33822 0.13462,-0.11224 0.26599,-0.22395 0.39418,-0.33503 0.12818,-0.11108 0.25317,-0.22152 0.37502,-0.33123 0.12185,-0.10971 0.24056,-0.21868 0.35617,-0.32682 0.11561,-0.10815 0.22813,-0.21545 0.33762,-0.32183 0.10948,-0.10638 0.21592,-0.21183 0.31939,-0.31625 0.10346,-0.10443 0.20394,-0.20783 0.3015,-0.3101 0.0976,-0.10228 0.19219,-0.20344 0.28396,-0.30339 0.0918,-0.1 0.18069,-0.19869 0.2668,-0.29613 0.0861,-0.0974 0.16943,-0.19358 0.25001,-0.28833 0.0806,-0.0948 0.15844,-0.18811 0.23363,-0.28 0.0752,-0.0919 0.14771,-0.1823 0.21765,-0.27116 0.0699,-0.0889 0.13727,-0.17616 0.20209,-0.26182 0.0648,-0.0857 0.12712,-0.16968 0.18698,-0.25199 0.0598,-0.0823 0.11726,-0.16289 0.17231,-0.24168 0.055,-0.0788 0.10772,-0.15579 0.1581,-0.23092 0.0504,-0.0751 0.0985,-0.14839 0.14438,-0.21971 0.0459,-0.0713 0.0896,-0.14069 0.13114,-0.20806 0.0416,-0.0674 0.081,-0.13272 0.11839,-0.19599 0.0374,-0.0633 0.0727,-0.12448 0.10615,-0.18353 0.0334,-0.059 0.0649,-0.11596 0.0944,-0.17066 0.0296,-0.0547 0.0573,-0.10721 0.0833,-0.15744 0.026,-0.0502 0.0501,-0.0982 0.0726,-0.14385 0.0225,-0.0456 0.0433,-0.089 0.0625,-0.12991 0.0192,-0.041 0.0368,-0.0795 0.053,-0.11566 0.0161,-0.0361 0.0308,-0.0699 0.044,-0.10108 0.0132,-0.0312 0.0251,-0.06 0.0356,-0.0862 0.0105,-0.0262 0.0198,-0.0499 0.0278,-0.0711 0.008,-0.0211 0.0148,-0.0397 0.0206,-0.0557 0.006,-0.016 0.0104,-0.0293 0.0139,-0.04 0.004,-0.0107 0.006,-0.0187 0.009,-0.0268 0.25722,-0.80469 0.5169,-1.61718 0.77535,-2.42575 2.01877,0.59269 4.08495,1.04262 6.16738,1.34302 -0.10117,0.84282 -0.20284,1.68972 -0.3035,2.5285 -10e-4,0.008 -0.002,0.0167 -0.003,0.028 -10e-4,0.0112 -0.003,0.0253 -0.004,0.0422 -10e-4,0.0169 -0.003,0.0366 -0.004,0.0592 -10e-4,0.0226 -0.003,0.048 -0.004,0.0762 -10e-4,0.0282 -0.003,0.0593 -0.003,0.0932 -9.5e-4,0.0339 -0.002,0.0707 -0.002,0.11023 -3.6e-4,0.0396 -3.7e-4,0.082 8e-5,0.12721 4.5e-4,0.0452 10e-4,0.0933 0.003,0.14414 10e-4,0.0509 0.004,0.10454 0.006,0.16101 0.003,0.0565 0.006,0.11574 0.0103,0.1778 0.004,0.062 0.009,0.12688 0.0149,0.19448 0.006,0.0676 0.0125,0.13795 0.0202,0.21105 0.008,0.0731 0.0164,0.14892 0.0262,0.22747 0.01,0.0786 0.0207,0.15981 0.0327,0.24375 0.0121,0.0839 0.0254,0.17057 0.0399,0.25984 0.0146,0.0893 0.0305,0.18121 0.0478,0.27576 0.0173,0.0945 0.036,0.1917 0.0562,0.29144 0.0202,0.0998 0.0419,0.20207 0.0653,0.30692 0.0233,0.10486 0.0483,0.21226 0.0749,0.32215 0.0267,0.10989 0.055,0.22227 0.0852,0.33711 0.0302,0.11483 0.0621,0.23211 0.096,0.35179 0.0339,0.11967 0.0697,0.24175 0.10749,0.36617 0.0378,0.12443 0.0776,0.25119 0.11951,0.38025 0.0419,0.12906 0.0859,0.26041 0.1321,0.394 0.0462,0.13358 0.0946,0.26939 0.14526,0.40738 0.0507,0.13799 0.10363,0.27815 0.15897,0.42042 0.0553,0.14227 0.11305,0.28665 0.17323,0.43308 0.0602,0.14642 0.12282,0.29488 0.18802,0.44532 0.0652,0.15044 0.13295,0.30286 0.20334,0.45718 0.0704,0.15432 0.14342,0.31054 0.21918,0.46859 0.0757,0.15805 0.15423,0.31793 0.23551,0.47957 0.0813,0.16163 0.16537,0.32502 0.25234,0.49009 0.0181,0.0344 0.0364,0.069 0.0548,0.10355 1.25864,0.0933 2.5212,0.14365 3.78328,0.15096 0.0211,-0.033 0.0421,-0.066 0.0629,-0.0988 0.0998,-0.15761 0.19669,-0.31378 0.29059,-0.46842 0.0939,-0.15465 0.18487,-0.30777 0.27298,-0.45928 0.0881,-0.15151 0.17335,-0.30142 0.25581,-0.44964 0.0825,-0.14822 0.16214,-0.29475 0.23912,-0.43952 0.077,-0.14477 0.15125,-0.28777 0.22291,-0.42893 0.0716,-0.14116 0.14069,-0.28049 0.20718,-0.41789 0.0665,-0.13741 0.13046,-0.27291 0.19197,-0.40642 0.0615,-0.13351 0.12056,-0.26504 0.17725,-0.39452 0.0567,-0.12948 0.11103,-0.2569 0.16308,-0.38221 0.0521,-0.12531 0.10183,-0.24851 0.14943,-0.36952 0.0476,-0.12102 0.093,-0.23985 0.13632,-0.35645 0.0433,-0.1166 0.0845,-0.23096 0.12377,-0.34302 0.0392,-0.11206 0.0765,-0.22183 0.11178,-0.32925 0.0353,-0.10741 0.0687,-0.21248 0.10035,-0.31515 0.0316,-0.10266 0.0614,-0.20293 0.0895,-0.30074 0.0281,-0.0978 0.0545,-0.19318 0.0793,-0.28604 0.0248,-0.0929 0.0479,-0.18324 0.0696,-0.27107 0.0217,-0.0878 0.0418,-0.17313 0.0605,-0.25584 0.0187,-0.0827 0.0361,-0.16285 0.0521,-0.24036 0.016,-0.0775 0.0307,-0.15242 0.0442,-0.22467 0.0135,-0.0722 0.0258,-0.14185 0.037,-0.20876 0.0112,-0.0669 0.0213,-0.13115 0.0304,-0.19268 0.009,-0.0615 0.0172,-0.12033 0.0244,-0.17641 0.007,-0.0561 0.0135,-0.10942 0.019,-0.16001 0.006,-0.0506 0.0103,-0.0984 0.0143,-0.14345 0.004,-0.0451 0.007,-0.0873 0.0102,-0.1268 0.003,-0.0395 0.005,-0.0762 0.007,-0.11004 0.002,-0.0339 0.003,-0.0649 0.004,-0.0932 9.3e-4,-0.0283 10e-4,-0.0537 0.002,-0.0763 3.1e-4,-0.0226 3.7e-4,-0.0424 2.8e-4,-0.0594 -9e-5,-0.017 -3.2e-4,-0.0311 -6e-4,-0.0424 -2.8e-4,-0.0113 -6.2e-4,-0.0197 -9.5e-4,-0.0281 -0.0335,-0.84413 -0.0674,-1.69644 -0.10106,-2.54464 2.09973,-0.13352 4.1952,-0.4174 6.25477,-0.84734 0.1932,0.82659 0.38732,1.65719 0.57961,2.47981 0.002,0.008 0.004,0.0164 0.007,0.0274 0.003,0.011 0.006,0.0247 0.0107,0.041 0.004,0.0164 0.01,0.0354 0.0161,0.0572 0.006,0.0217 0.0136,0.0461 0.022,0.0731 0.008,0.027 0.0179,0.0566 0.0286,0.0888 0.0107,0.0322 0.0226,0.067 0.0358,0.10428 0.0132,0.0373 0.0277,0.0772 0.0436,0.11951 0.0159,0.0423 0.0332,0.0872 0.052,0.13448 0.0188,0.0473 0.0391,0.097 0.0609,0.14917 0.0219,0.0521 0.0453,0.10668 0.0704,0.16357 0.0251,0.0569 0.052,0.11612 0.0805,0.17765 0.0286,0.0615 0.059,0.12534 0.0912,0.1914 0.0322,0.066 0.0663,0.13434 0.10239,0.2048 0.0361,0.0705 0.0741,0.1431 0.11415,0.21785 0.0401,0.0747 0.0822,0.15161 0.12641,0.23051 0.0442,0.0789 0.0906,0.15985 0.1392,0.24278 0.0486,0.0829 0.0994,0.16784 0.15251,0.25465 0.0531,0.0868 0.10851,0.17553 0.1663,0.26609 0.0578,0.0906 0.11796,0.18294 0.18059,0.27708 0.0626,0.0942 0.12772,0.19006 0.19535,0.28765 0.0676,0.0976 0.13779,0.19685 0.21057,0.29772 0.0728,0.10087 0.14817,0.20334 0.22625,0.30733 0.0781,0.10399 0.15883,0.2095 0.24235,0.31645 0.0835,0.10694 0.16979,0.21532 0.25889,0.32505 0.0891,0.10972 0.18102,0.2208 0.27584,0.33314 0.0948,0.11233 0.19251,0.22593 0.29317,0.34069 0.10066,0.11476 0.20427,0.2307 0.3109,0.34771 0.10663,0.11701 0.21627,0.23509 0.32899,0.35416 0.11273,0.11907 0.22852,0.23912 0.34744,0.36006 0.11893,0.12094 0.24099,0.24276 0.36623,0.36537 0.12524,0.12261 0.25367,0.24601 0.38533,0.3701 0.13166,0.12408 0.26657,0.24886 0.40475,0.37422 0.0288,0.0262 0.0578,0.0523 0.0869,0.0786 1.21464,-0.34283 2.41829,-0.7273 3.60675,-1.15209 0.009,-0.0382 0.017,-0.0764 0.0253,-0.11441 0.0399,-0.18225 0.0775,-0.36212 0.11286,-0.53956 0.0353,-0.17743 0.0685,-0.35243 0.0994,-0.52494 0.031,-0.17251 0.0598,-0.34253 0.0866,-0.51002 0.0268,-0.16748 0.0516,-0.33243 0.0744,-0.49479 0.0228,-0.16237 0.0437,-0.32215 0.0628,-0.47931 0.019,-0.15715 0.0363,-0.31169 0.0518,-0.46355 0.0155,-0.15186 0.0292,-0.30106 0.0414,-0.44756 0.0121,-0.1465 0.0226,-0.29029 0.0316,-0.43135 0.009,-0.14106 0.0165,-0.27939 0.0225,-0.41494 0.006,-0.13556 0.0107,-0.26835 0.014,-0.39834 0.003,-0.13 0.005,-0.2572 0.006,-0.38158 8.2e-4,-0.12438 4.5e-4,-0.24594 -10e-4,-0.36466 -0.001,-0.11873 -0.004,-0.23461 -0.008,-0.34763 -0.004,-0.11302 -0.008,-0.22318 -0.0135,-0.33047 -0.005,-0.10728 -0.0117,-0.21169 -0.0187,-0.31322 -0.007,-0.10152 -0.0149,-0.20016 -0.0234,-0.2959 -0.008,-0.0957 -0.0176,-0.18858 -0.0273,-0.27852 -0.01,-0.0899 -0.0199,-0.17698 -0.0306,-0.26111 -0.0107,-0.0841 -0.0218,-0.16536 -0.0333,-0.24368 -0.0115,-0.0783 -0.0233,-0.15373 -0.0353,-0.22624 -0.012,-0.0725 -0.0243,-0.14211 -0.0367,-0.20882 -0.0124,-0.0667 -0.0249,-0.13052 -0.0374,-0.19144 -0.0125,-0.0609 -0.025,-0.11896 -0.0374,-0.17412 -0.0124,-0.0552 -0.0247,-0.10744 -0.0368,-0.15686 -0.0121,-0.0494 -0.024,-0.096 -0.0356,-0.1397 -0.0116,-0.0437 -0.0229,-0.0846 -0.0338,-0.12265 -0.0109,-0.038 -0.0213,-0.0733 -0.0313,-0.10572 -0.01,-0.0324 -0.0194,-0.0621 -0.0282,-0.0889 -0.009,-0.0269 -0.017,-0.051 -0.0244,-0.0723 -0.007,-0.0214 -0.0142,-0.04 -0.02,-0.0559 -0.006,-0.0159 -0.0109,-0.0291 -0.0151,-0.0396 -0.004,-0.0105 -0.007,-0.0183 -0.0105,-0.0261 -0.32019,-0.78176 -0.64353,-1.57109 -0.96528,-2.35661 1.92744,-0.84362 3.79944,-1.82707 5.58776,-2.9355 0.46426,0.71066 0.93075,1.42478 1.3928,2.13202 0.005,0.007 0.009,0.0141 0.0155,0.0235 0.006,0.009 0.0143,0.021 0.0241,0.0349 0.01,0.0139 0.0213,0.03 0.0346,0.0482 0.0134,0.0182 0.0286,0.0386 0.0457,0.0611 0.0171,0.0225 0.0362,0.047 0.0573,0.0736 0.0211,0.0266 0.0441,0.0552 0.0693,0.0857 0.0252,0.0306 0.0524,0.063 0.0818,0.0974 0.0294,0.0344 0.061,0.0706 0.0948,0.1086 0.0338,0.038 0.0699,0.0778 0.10826,0.11935 0.0384,0.0415 0.0791,0.0848 0.12214,0.12961 0.0431,0.0449 0.0885,0.0914 0.13644,0.13939 0.0479,0.048 0.0983,0.0976 0.15116,0.14866 0.0529,0.0511 0.10829,0.10355 0.16627,0.15743 0.058,0.0539 0.11855,0.10914 0.18176,0.16567 0.0632,0.0565 0.12907,0.11436 0.19763,0.17338 0.0686,0.059 0.13983,0.11922 0.21385,0.18053 0.074,0.0613 0.15081,0.12372 0.2304,0.18713 0.0796,0.0634 0.16201,0.12783 0.24728,0.19316 0.0853,0.0653 0.17342,0.13156 0.26447,0.19861 0.0911,0.067 0.18502,0.13491 0.28195,0.20348 0.0969,0.0686 0.19681,0.13786 0.2997,0.20775 0.10289,0.0699 0.20878,0.14041 0.31771,0.21142 0.10894,0.071 0.22092,0.14254 0.33597,0.21447 0.11506,0.0719 0.2332,0.14427 0.35445,0.2169 0.12126,0.0726 0.24563,0.14558 0.37314,0.21871 0.12752,0.0731 0.25818,0.14646 0.39202,0.21988 0.13384,0.0734 0.27086,0.14691 0.41108,0.2204 0.14021,0.0735 0.28364,0.14695 0.43028,0.22028 0.14665,0.0733 0.29652,0.14655 0.44963,0.21951 0.15312,0.073 0.30948,0.1457 0.46911,0.21808 0.15962,0.0724 0.32251,0.14442 0.48867,0.21599 0.16616,0.0716 0.3356,0.14268 0.50833,0.21322 0.0361,0.0147 0.0722,0.0294 0.10856,0.0441 1.02413,-0.73759 2.02369,-1.51055 2.99519,-2.3162 -0.005,-0.0389 -0.0102,-0.0776 -0.0154,-0.11616 -0.0248,-0.18492 -0.051,-0.3668 -0.0785,-0.54562 -0.0275,-0.17882 -0.0562,-0.35459 -0.0861,-0.52729 -0.0299,-0.1727 -0.061,-0.34233 -0.0931,-0.50888 -0.0321,-0.16655 -0.0653,-0.33002 -0.0993,-0.4904 -0.0341,-0.16037 -0.0691,-0.31766 -0.10496,-0.47186 -0.0358,-0.15419 -0.0725,-0.30529 -0.1099,-0.4533 -0.0374,-0.148 -0.0755,-0.29291 -0.11419,-0.43472 -0.0387,-0.14182 -0.078,-0.28053 -0.1178,-0.41616 -0.0398,-0.13563 -0.0801,-0.26816 -0.12076,-0.39762 -0.0407,-0.12945 -0.0817,-0.25582 -0.12306,-0.37912 -0.0413,-0.12329 -0.0829,-0.24351 -0.12469,-0.36068 -0.0418,-0.11716 -0.0837,-0.23126 -0.12567,-0.34232 -0.042,-0.11106 -0.084,-0.21908 -0.12601,-0.32407 -0.042,-0.10499 -0.0839,-0.20696 -0.1257,-0.30593 -0.0418,-0.099 -0.0834,-0.19493 -0.12474,-0.28792 -0.0414,-0.093 -0.0824,-0.183 -0.12315,-0.27007 -0.0407,-0.0871 -0.0811,-0.17118 -0.12093,-0.25238 -0.0399,-0.0812 -0.0793,-0.15949 -0.11808,-0.23489 -0.0388,-0.0754 -0.0771,-0.14792 -0.11462,-0.2176 -0.0376,-0.0697 -0.0744,-0.1365 -0.11054,-0.20052 -0.0361,-0.064 -0.0714,-0.12524 -0.10586,-0.1837 -0.0344,-0.0584 -0.068,-0.11414 -0.10058,-0.16712 -0.0326,-0.053 -0.0642,-0.10323 -0.0947,-0.15081 -0.0305,-0.0476 -0.06,-0.0925 -0.0883,-0.13481 -0.0283,-0.0423 -0.0554,-0.082 -0.0812,-0.11909 -0.0259,-0.0371 -0.0504,-0.0717 -0.0737,-0.1037 -0.0232,-0.032 -0.0451,-0.0616 -0.0655,-0.0887 -0.0204,-0.0271 -0.0394,-0.0517 -0.0569,-0.0739 -0.0175,-0.0222 -0.0334,-0.0421 -0.0477,-0.0596 -0.0143,-0.0175 -0.027,-0.0327 -0.0379,-0.0456 -0.011,-0.0129 -0.0202,-0.0236 -0.0277,-0.0321 -0.007,-0.008 -0.0131,-0.0147 -0.0188,-0.0209 -0.56826,-0.6251 -1.14206,-1.25624 -1.71308,-1.88434 1.52267,-1.45197 2.94542,-3.01637 4.24678,-4.6696 0.68005,0.50957 1.36011,1.01914 2.04016,1.52872 z"
       id="path2"
       inkscape:connector-curvature="0"
       style="fill:none;stroke:#000000;stroke-width:0.25;stroke-linecap:square;stroke-linejoin:miter;stroke-opacity:1"
       transform="translate(-1.0907014e-5)" />
    <g
       id="g35">
      <g
         id="g31" />
      <g
         id="g33" />
    </g>
  </g>
  <g
     style="display:inline"
     inkscape:label="60[feed=300]"
     id="layer2"
     inkscape:groupmode="layer">
    <path
       id="circle4"
       d="m 770.38013,-181.239 a 5,5 0 0 1 -5,5 5,5 0 0 1 -5,-5 5,5 0 0 1 5,-5 5,5 0 0 1 5,5 z"
       style="fill:none;stroke:#000000;stroke-width:0.25;stroke-linecap:square;stroke-linejoin:miter;stroke-opacity:1"
       transform="translate(-1.0907014e-5)" />
  </g>
</svg>
